<svg xmlns="http://www.w3.org/2000/svg" version="1.1" xmlns:xlink="http://www.w3.org/1999/xlink" xmlns:svgjs="http://svgjs.dev/svgjs" width="1440" height="562" preserveAspectRatio="none" viewBox="0 0 1440 562"><g mask="url(&quot;#SvgjsMask1138&quot;)" fill="none"><rect width="1440" height="562" x="0" y="0" fill="rgba(24, 106, 59, 1)"></rect><path d="M0,504.264C95.543,525.872,200.075,492.225,279.399,434.753C356.963,378.555,399.504,286.74,426.904,194.96C451.862,111.361,444.812,24.048,427.544,-61.471C411.067,-143.072,378.949,-218.586,329.827,-285.797C277.263,-357.717,214.345,-419.882,135.413,-461.175C43.41,-509.306,-63.007,-581.089,-159.007,-541.529C-256.552,-501.332,-270.723,-369.513,-317.048,-274.724C-351.65,-203.923,-386.152,-135.119,-395.846,-56.914C-405.393,20.106,-406.395,100.31,-372.171,169.965C-338.406,238.685,-265.449,273.247,-208.487,324.412C-138.796,387.011,-91.37,483.6,0,504.264" fill="#114a29"></path><path d="M1440 1040.173C1539.139 1029.714 1637.521 1048.1 1732.046 1016.432 1848.002 977.5840000000001 1978.153 940.893 2043.9740000000002 837.826 2111.705 731.767 2116.075 590.71 2081.124 469.82 2048.0209999999997 355.322 1940.091 286.296 1859.2069999999999 198.755 1781.26 114.392 1725.423-2.370999999999981 1615.15-34.50599999999997 1504.92-66.62800000000004 1386.776-20.278999999999996 1284.135 31.173000000000002 1192.801 76.957 1142.438 169.66500000000002 1068.08 239.72899999999998 983.155 319.75 858.834 363.744 815.994 472.281 770.016 588.769 777.452 726.914 831.126 840.063 884.515 952.611 987.1320000000001 1043.6390000000001 1105.474 1082.533 1214.462 1118.3519999999999 1325.91 1052.209 1440 1040.173" fill="#1f8a4d"></path></g><defs><mask id="SvgjsMask1138"><rect width="1440" height="562" fill="#ffffff"></rect></mask></defs></svg>