<svg xmlns="http://www.w3.org/2000/svg" version="1.1" xmlns:xlink="http://www.w3.org/1999/xlink" xmlns:svgjs="http://svgjs.dev/svgjs" width="1430" height="560" preserveAspectRatio="none" viewBox="0 0 1430 560"><g mask="url(&quot;#SvgjsMask1148&quot;)" fill="none"><path d="M1549.1666666666667 560L0 560 L0 256.07Q95.77 232.68, 119.16666666666666 328.45Q129.97 267.75, 190.66666666666666 278.55Q235.32 204.04, 309.8333333333333 248.69Q405.35 225.04, 429 320.55Q477.13 249.51, 548.1666666666666 297.64Q584.8 215.11, 667.3333333333333 251.74Q736.49 201.73, 786.4999999999999 270.89Q828.69 241.58, 857.9999999999999 283.78Q932.71 239.33, 977.1666666666665 314.04Q1039.39 304.76, 1048.6666666666665 366.99Q1052.31 251.46, 1167.8333333333333 255.1Q1220.51 188.61, 1287 241.29Q1345.38 228.18, 1358.5 286.56Q1416.93 273.5, 1430 331.93Q1510.38 293.15, 1549.1666666666667 373.53z" fill="rgba(2, 165, 67, 1)"></path><path d="M1453.8333333333333 560L0 560 L0 455.31Q46.13 382.27, 119.16666666666666 428.4Q149.47 387.2, 190.66666666666666 417.51Q207.28 362.63, 262.16666666666663 379.24Q308.05 353.62, 333.66666666666663 399.5Q382.5 376.84, 405.16666666666663 425.67Q474.31 423.31, 476.66666666666663 492.46Q499.48 443.77, 548.1666666666666 466.58Q558.46 405.38, 619.6666666666666 415.67Q641.96 318.8, 738.8333333333333 341.1Q814.02 297.12, 857.9999999999999 372.31Q907.37 350.18, 929.4999999999999 399.55Q983.19 381.75, 1000.9999999999999 435.44Q1084.49 399.77, 1120.1666666666665 483.26Q1123.81 415.4, 1191.6666666666665 419.05Q1228.6 336.82, 1310.8333333333333 373.75Q1353.11 344.52, 1382.3333333333333 386.8Q1468.4 401.37, 1453.8333333333333 487.44z" fill="rgba(0, 139, 3, 1)"></path><path d="M1477.6666666666665 560L0 560 L0 532.14Q4.53 465.17, 71.5 469.71Q146.96 473.67, 143 549.14Q218.38 505.35, 262.16666666666663 580.73Q308.66 555.73, 333.66666666666663 602.22Q334.77 531.82, 405.16666666666663 532.92Q417.33 473.58, 476.66666666666663 485.75Q498.68 436.26, 548.1666666666666 458.27Q589.36 427.97, 619.6666666666666 469.16Q731.18 461.51, 738.8333333333333 573.02Q755.11 517.8, 810.3333333333333 534.08Q821.41 473.66, 881.8333333333333 484.73Q928.45 412.18, 1000.9999999999999 458.79Q1067.23 405.86, 1120.1666666666665 472.09Q1194.29 474.72, 1191.6666666666665 548.84Q1237.41 523.08, 1263.1666666666665 568.82Q1275.77 509.92, 1334.6666666666665 522.53Q1343.42 459.78, 1406.1666666666665 468.54Q1435.69 426.56, 1477.6666666666665 456.09z" fill="rgba(0, 121, 67, 1)"></path></g><defs><mask id="SvgjsMask1148"><rect width="1430" height="560" fill="#ffffff"></rect></mask></defs></svg>